# xmcd
#
# Track frame offsets:
#	150
#	14873
#	29648
#	44247
#	57826
#	72212
#	86242
#	101860
#	115263
#	129330
#	145347
#	160784
#
# Disc length: 2362 seconds
#
# Revision: 0
# Processed by: cddbd v1.5.2PL0 Copyright (c) Steve Scherf et al.
# Submitted via: EZCDAudioConverter 3.1.0.1
#
DISCID=b609380c
DTITLE=TĒRVETE - Nopērciet Vēju
DYEAR=2015
DGENRE=
TTITLE0=Vasaras Sniegs
TTITLE1=Tavs Vārds
TTITLE2=17 Matadatas
TTITLE3=Sangrija
TTITLE4=Ja Esi Tu
TTITLE5=Pa Varavīksnes Loku
TTITLE6=Šoferīša Stāsts
TTITLE7=Piecas Meitenes
TTITLE8=Precību Ziņģe
TTITLE9=Nopērciet Vēju
TTITLE10=Mātei
TTITLE11=Es Gribu Ziedēt
EXTD=
EXTT0=
EXTT1=
EXTT2=
EXTT3=
EXTT4=
EXTT5=
EXTT6=
EXTT7=
EXTT8=
EXTT9=
EXTT10=
EXTT11=
PLAYORDER=
